<svg width="100" height="60" viewBox="0 0 100 60" fill="none" xmlns="http://www.w3.org/2000/svg">
<mask id="mask0" mask-type="alpha" maskUnits="userSpaceOnUse" x="0" y="0" width="100" height="60">
<rect width="67.1667" height="60" fill="#C4C4C4"/>
</mask>
<g mask="url(#mask0)">
<path d="M54.167 49.8333H67.167V86.6666C67.167 90.2564 64.2568 93.1666 60.667 93.1666C57.0771 93.1666 54.167 90.2564 54.167 86.6666V49.8333Z" fill="#9BAECD"/>
<path d="M0 49.8333H13L13 86.6666C13 90.2564 10.0899 93.1666 6.5 93.1666C2.91015 93.1666 0 90.2564 0 86.6666L0 49.8333Z" fill="#9BAECD"/>
<path fill-rule="evenodd" clip-rule="evenodd" d="M49.834 36.8335H17.334V86.6668H30.3333V83.4166C30.3333 81.6217 31.7883 80.1666 33.5833 80.1666C35.3782 80.1666 36.8333 81.6217 36.8333 83.4166V86.6668H49.834V36.8335Z" fill="#9BAECD"/>
<rect x="17.334" width="32.5" height="32.5" rx="16.25" fill="#9BAECD"/>
<path fill-rule="evenodd" clip-rule="evenodd" d="M0.73972 54.1668C0.260666 52.8114 0 51.3529 0 49.8335C0 42.6538 5.8203 36.8335 13 36.8335H54.1667C61.3464 36.8335 67.1667 42.6538 67.1667 49.8335C67.1667 51.3529 66.906 52.8114 66.427 54.1668H0.73972ZM54.188 62.8335C54.1809 62.8335 54.1738 62.8335 54.1667 62.8335H13C12.9929 62.8335 12.9858 62.8335 12.9786 62.8335H54.188Z" fill="#9BAECD"/>
</g>
</svg>
